<?xml version="1.0" encoding="UTF-8" standalone="no"?>
<!DOCTYPE svg PUBLIC "-//W3C//DTD SVG 1.1//EN"
 "http://www.w3.org/Graphics/SVG/1.1/DTD/svg11.dtd">
<!-- Generated by graphviz version 2.40.1 (20161225.0304)
 -->
<!-- Title: flowchart Pages: 1 -->
<svg width="676pt" height="394pt"
 viewBox="0.00 0.00 676.45 393.60" xmlns="http://www.w3.org/2000/svg" xmlns:xlink="http://www.w3.org/1999/xlink">
<g id="graph0" class="graph" transform="scale(1 1) rotate(0) translate(4 389.6)">
<title>flowchart</title>
<polygon fill="#ffffff" stroke="transparent" points="-4,4 -4,-389.6 672.4476,-389.6 672.4476,4 -4,4"/>
<!-- start -->
<g id="node1" class="node">
<title>start</title>
<polygon fill="none" stroke="#000000" points="218.9076,-377.4014 .0308,-377.4014 .0308,-318.5986 218.9076,-318.5986 218.9076,-377.4014"/>
<text text-anchor="middle" x="109.4692" y="-360.6" font-family="Times,serif" font-size="14.00" fill="#000000">9,360 biological children</text>
<text text-anchor="middle" x="109.4692" y="-343.8" font-family="Times,serif" font-size="14.00" fill="#000000">of NLS Youth female respondents</text>
<text text-anchor="middle" x="109.4692" y="-327" font-family="Times,serif" font-size="14.00" fill="#000000">interviewed between 1986 and 1992</text>
</g>
<!-- ineligible -->
<g id="node2" class="node">
<title>ineligible</title>
<polygon fill="none" stroke="#000000" points="668.426,-385.7003 236.5124,-385.7003 236.5124,-310.2997 668.426,-310.2997 668.426,-385.7003"/>
<text text-anchor="middle" x="452.4692" y="-369" font-family="Times,serif" font-size="14.00" fill="#000000">8,955 not eligible for analysis </text>
<text text-anchor="middle" x="452.4692" y="-352.2" font-family="Times,serif" font-size="14.00" fill="#000000">(Not of reading age by first wave of measurement,</text>
<text text-anchor="middle" x="452.4692" y="-335.4" font-family="Times,serif" font-size="14.00" fill="#000000"> incomplete data on all measures of interest at first wave of measurement, </text>
<text text-anchor="middle" x="452.4692" y="-318.6" font-family="Times,serif" font-size="14.00" fill="#000000">additional siblings from the same family)</text>
</g>
<!-- start&#45;&gt;ineligible -->
<g id="edge5" class="edge">
<title>start&#45;&gt;ineligible</title>
<path fill="none" stroke="#000000" stroke-dasharray="5,2" d="M219.0014,-348C221.4381,-348 223.8748,-348 226.3115,-348"/>
<polygon fill="#000000" stroke="#000000" points="236.3291,-348 226.3292,-352.5001 231.3291,-348 226.3291,-348.0001 226.3291,-348.0001 226.3291,-348.0001 231.3291,-348 226.3291,-343.5001 236.3291,-348 236.3291,-348"/>
</g>
<!-- time1 -->
<g id="node3" class="node">
<title>time1</title>
<polygon fill="none" stroke="#000000" points="187.423,-274.2019 31.5154,-274.2019 31.5154,-232.9981 187.423,-232.9981 187.423,-274.2019"/>
<text text-anchor="middle" x="109.4692" y="-257.8" font-family="Times,serif" font-size="14.00" fill="#000000">Time 1:</text>
<text text-anchor="middle" x="109.4692" y="-241" font-family="Times,serif" font-size="14.00" fill="#000000">405 children interviewed</text>
</g>
<!-- start&#45;&gt;time1 -->
<g id="edge1" class="edge">
<title>start&#45;&gt;time1</title>
<path fill="none" stroke="#000000" d="M109.4692,-318.6487C109.4692,-307.7386 109.4692,-295.3363 109.4692,-284.308"/>
<polygon fill="#000000" stroke="#000000" points="109.4692,-274.249 113.9693,-284.249 109.4692,-279.249 109.4693,-284.249 109.4693,-284.249 109.4693,-284.249 109.4692,-279.249 104.9693,-284.2491 109.4692,-274.249 109.4692,-274.249"/>
</g>
<!-- time2 -->
<g id="node4" class="node">
<title>time2</title>
<polygon fill="none" stroke="#000000" points="187.423,-196.6019 31.5154,-196.6019 31.5154,-155.3981 187.423,-155.3981 187.423,-196.6019"/>
<text text-anchor="middle" x="109.4692" y="-180.2" font-family="Times,serif" font-size="14.00" fill="#000000">Time 2:</text>
<text text-anchor="middle" x="109.4692" y="-163.4" font-family="Times,serif" font-size="14.00" fill="#000000">374 children interviewed</text>
</g>
<!-- time1&#45;&gt;time2 -->
<g id="edge2" class="edge">
<title>time1&#45;&gt;time2</title>
<path fill="none" stroke="#000000" d="M109.4692,-232.8046C109.4692,-224.8891 109.4692,-215.6891 109.4692,-207.0278"/>
<polygon fill="#000000" stroke="#000000" points="109.4692,-196.8528 113.9693,-206.8527 109.4692,-201.8528 109.4693,-206.8528 109.4693,-206.8528 109.4693,-206.8528 109.4692,-201.8528 104.9693,-206.8528 109.4692,-196.8528 109.4692,-196.8528"/>
</g>
<!-- time3 -->
<g id="node5" class="node">
<title>time3</title>
<polygon fill="none" stroke="#000000" points="187.423,-119.0019 31.5154,-119.0019 31.5154,-77.7981 187.423,-77.7981 187.423,-119.0019"/>
<text text-anchor="middle" x="109.4692" y="-102.6" font-family="Times,serif" font-size="14.00" fill="#000000">Time 3:</text>
<text text-anchor="middle" x="109.4692" y="-85.8" font-family="Times,serif" font-size="14.00" fill="#000000">294 children interviewed</text>
</g>
<!-- time2&#45;&gt;time3 -->
<g id="edge3" class="edge">
<title>time2&#45;&gt;time3</title>
<path fill="none" stroke="#000000" d="M109.4692,-155.2046C109.4692,-147.2891 109.4692,-138.0891 109.4692,-129.4278"/>
<polygon fill="#000000" stroke="#000000" points="109.4692,-119.2528 113.9693,-129.2527 109.4692,-124.2528 109.4693,-129.2528 109.4693,-129.2528 109.4693,-129.2528 109.4692,-124.2528 104.9693,-129.2528 109.4692,-119.2528 109.4692,-119.2528"/>
</g>
<!-- time4 -->
<g id="node6" class="node">
<title>time4</title>
<polygon fill="none" stroke="#000000" points="187.423,-41.4019 31.5154,-41.4019 31.5154,-.1981 187.423,-.1981 187.423,-41.4019"/>
<text text-anchor="middle" x="109.4692" y="-25" font-family="Times,serif" font-size="14.00" fill="#000000">Time 4:</text>
<text text-anchor="middle" x="109.4692" y="-8.2" font-family="Times,serif" font-size="14.00" fill="#000000">221 children interviewed</text>
</g>
<!-- time3&#45;&gt;time4 -->
<g id="edge4" class="edge">
<title>time3&#45;&gt;time4</title>
<path fill="none" stroke="#000000" d="M109.4692,-77.6046C109.4692,-69.6891 109.4692,-60.4891 109.4692,-51.8278"/>
<polygon fill="#000000" stroke="#000000" points="109.4692,-41.6528 113.9693,-51.6527 109.4692,-46.6528 109.4693,-51.6528 109.4693,-51.6528 109.4693,-51.6528 109.4692,-46.6528 104.9693,-51.6528 109.4692,-41.6528 109.4692,-41.6528"/>
</g>
</g>
</svg>

